<?xml version="1.0" encoding="UTF-8" standalone="no"?>
<!-- Created with Inkscape (http://www.inkscape.org/) -->

<svg
   xmlns:dc="http://purl.org/dc/elements/1.1/"
   xmlns:cc="http://creativecommons.org/ns#"
   xmlns:rdf="http://www.w3.org/1999/02/22-rdf-syntax-ns#"
   xmlns:svg="http://www.w3.org/2000/svg"
   xmlns="http://www.w3.org/2000/svg"
   xmlns:sodipodi="http://sodipodi.sourceforge.net/DTD/sodipodi-0.dtd"
   xmlns:inkscape="http://www.inkscape.org/namespaces/inkscape"
   width="850.39368"
   height="850.39368"
   viewBox="0 0 225 225"
   version="1.1"
   id="svg52"
   inkscape:version="0.92.5 (2060ec1f9f, 2020-04-08)"
   sodipodi:docname="four-a-pain.svg">
  <defs
     id="defs46" />
  <sodipodi:namedview
     id="base"
     pagecolor="#ffffff"
     bordercolor="#666666"
     borderopacity="1.0"
     inkscape:pageopacity="0.0"
     inkscape:pageshadow="2"
     inkscape:zoom="0.35"
     inkscape:cx="400"
     inkscape:cy="560"
     inkscape:document-units="mm"
     inkscape:current-layer="layer1"
     showgrid="false"
     units="px"
     showborder="true"
     inkscape:window-width="1920"
     inkscape:window-height="1057"
     inkscape:window-x="-8"
     inkscape:window-y="-8"
     inkscape:window-maximized="1" />
  <metadata
     id="metadata49">
    <rdf:RDF>
      <cc:Work
         rdf:about="">
        <dc:format>image/svg+xml</dc:format>
        <dc:type
           rdf:resource="http://purl.org/dc/dcmitype/StillImage" />
        <dc:title></dc:title>
      </cc:Work>
    </rdf:RDF>
  </metadata>
  <g
     inkscape:label="Calque 1"
     inkscape:groupmode="layer"
     id="layer1"
     transform="translate(0,-72)">
    <path
       style="fill:#ff0000;stroke-width:0.91909426"
       d="m 78.632032,242.04543 -0.306695,-9.54523 -3.806165,-3.47151 c -2.093413,-1.90932 -3.799973,-4.22329 -3.792368,-5.14211 0.01769,-2.03644 4.153186,-4.82262 9.531277,-6.42012 l 3.99531,-1.18674 5.537026,5.8221 c 4.668625,4.90897 6.023035,5.81875 8.636131,5.801 6.752412,-0.0458 9.785442,-6.78078 5.323082,-11.82005 l -2.08892,-2.359 h 2.95644 c 2.46155,0 4.12888,1.18843 9.96129,7.10007 6.29028,6.37576 7.36333,7.10003 10.51913,7.10003 2.75732,0 3.92351,-0.5519 5.41414,-2.56237 1.81555,-2.44868 1.88474,-4.04532 0.35827,-8.2656 -0.48013,-1.3274 -0.0248,-1.45173 3.34238,-0.91131 7.93812,1.27425 12.73632,3.50144 13.66776,6.34419 0.80091,2.4443 0.5402,2.94963 -3.33487,6.46369 l -4.20371,3.81208 v 9.39306 9.39309 H 109.64012 78.938727 Z"
       id="path12"
       inkscape:connector-curvature="0" />
    <path
       style="fill:#ff0000;stroke-width:0.91909426"
       d="m 8.8037366,255.30471 -2.3101161,-2.91262 v -20.069 c 0,-16.7452 1.0957884,-35.22417 2.1554244,-36.34839 0.36531,-0.38752 15.0136851,9.29454 21.2679611,14.05738 l 5.130824,3.90734 v 22.13898 22.13897 H 23.080859 11.113852 Z"
       id="path14"
       inkscape:connector-curvature="0" />
    <path
       style="fill:#ff0000;stroke-width:0.91909426"
       d="m 53.096061,231.00053 c 0.374365,-26.63506 0.435421,-27.38883 2.855233,-35.26353 3.523488,-11.46616 6.959921,-17.31808 15.675255,-26.69354 8.245881,-8.87042 15.403579,-13.33093 26.329805,-16.40805 6.966716,-1.96201 20.695216,-1.96201 27.661886,0 10.92627,3.07712 18.08397,7.53763 26.32985,16.40805 8.71533,9.37546 12.15176,15.22738 15.67522,26.69354 2.41984,7.8747 2.48087,8.62847 2.85523,35.26353 l 0.38257,27.21684 h -7.2289 -7.22891 v -7.86959 c 0,-7.59046 0.099,-7.96824 2.78947,-10.65006 5.84793,-5.82907 7.89404,-16.72001 4.54874,-24.21208 -2.48468,-5.56468 -11.13883,-12.82924 -17.9369,-15.05688 -20.21678,-6.6247 -52.399262,-6.63126 -72.437435,-0.015 -6.256716,2.06594 -14.079629,7.98872 -16.863512,12.76755 -4.062486,6.9736 -2.896373,21.03229 2.162711,26.07457 2.085843,2.07892 2.258717,2.89071 2.258717,10.60625 v 8.35504 h -4.105783 -4.105784 z"
       id="path16"
       inkscape:connector-curvature="0" />
    <path
       style="fill:#ff0000;stroke-width:0.91909426"
       d="m 31.691095,189.17618 c -3.510082,-2.37926 -9.193664,-6.24295 -12.630202,-8.58595 -3.436504,-2.34301 -6.264606,-4.82807 -6.284627,-5.52232 -0.136545,-4.73593 11.089335,-28.01665 16.952053,-35.15565 l 3.474637,-4.23108 2.791631,2.81107 c 1.535384,1.54608 6.416996,6.97078 10.847977,12.05483 l 8.056381,9.24372 -2.508954,4.00968 c -5.764661,9.21272 -10.607893,18.56727 -12.402853,23.95568 l -1.914066,5.74591 z"
       id="path20"
       inkscape:connector-curvature="0" />
    <path
       style="fill:#ff0000;stroke-width:0.91909426"
       d="m 57.23782,135.13198 c -6.069798,-6.82416 -11.03599,-12.79138 -11.03599,-13.26045 0,-2.50833 21.387808,-16.47078 31.231191,-20.38845 5.176705,-2.060338 21.439172,-6.093363 24.570429,-6.093363 0.52368,0 0.86066,7.331303 0.86066,18.723933 v 18.72392 l -6.023143,1.04157 c -9.042863,1.56376 -18.417254,5.85171 -26.664516,12.19666 -1.834579,1.41143 -2.297381,1.02 -12.938631,-10.94382 z"
       id="path22"
       inkscape:connector-curvature="0" />
    <path
       style="fill:#ff0000;stroke-width:0.91909426"
       d="m 151.04936,144.44839 c -5.11327,-4.58116 -16.30477,-9.08437 -29.22344,-11.75887 -2,-0.41406 -2.00774,-0.48687 -2.00774,-18.85771 0,-14.124177 0.26105,-18.441384 1.11542,-18.439068 3.88561,0.01051 18.08881,3.381864 24.20165,5.744598 9.37188,3.62243 25.74331,13.77069 32.20883,19.96548 0.90923,0.87116 -21.50692,25.43319 -23.15871,25.37571 -0.49786,-0.0188 -1.90908,-0.93087 -3.13601,-2.03014 z"
       id="path24"
       inkscape:connector-curvature="0" />
    <path
       style="fill:#ff0000;stroke-width:0.91909426"
       d="m 184.60864,190.76696 c -0.74288,-4.17461 -5.37462,-13.73662 -11.41975,-23.57563 l -5.00794,-8.1508 10.61097,-11.23528 c 5.83601,-6.17941 10.97755,-11.23527 11.4256,-11.23527 1.54553,0 7.81891,8.5399 11.47446,15.62008 3.9347,7.62086 8.59892,19.46775 9.53675,24.22285 0.55003,2.78901 0.32792,3.07055 -4.85675,6.15337 -11.61198,6.90473 -19.22661,11.12693 -20.19975,11.20052 -0.55884,0.0424 -1.26248,-1.30766 -1.56359,-2.99984 z"
       id="path26"
       inkscape:connector-curvature="0" />
    <path
       style="fill:#ff0000;stroke-width:0.91909426"
       d="m 188.5268,235.98652 v -22.23085 l 4.23852,-2.40042 c 2.33116,-1.32024 8.25394,-4.70408 13.16169,-7.51968 8.74679,-5.01808 8.93933,-5.07854 9.73869,-3.05888 0.44847,1.13319 0.99256,13.15709 1.20901,26.71981 l 0.39358,24.65946 -2.40375,3.03072 -2.40376,3.03069 H 200.49377 188.5268 Z"
       id="path28"
       inkscape:connector-curvature="0" />
    <path
       style="fill:#ff0000;stroke-width:0.26458332"
       id="path74"
       d="m 119.56315,220.19188 c 2.21725,1.0179 4.51638,1.89294 6.85146,2.60449 1.63308,0.4766 3.32918,0.57192 5.01872,0.61169 1.50722,-0.005 3.04316,-0.33853 4.3853,-1.02939 -2.99445,1.69727 -5.97687,3.41595 -8.98335,5.09181 -0.20544,0.11452 0.39882,-0.25257 0.57707,-0.40601 0.71614,-0.61648 0.98126,-1.42864 1.19812,-2.31297 0.24751,-1.40716 0.3602,-2.80074 -0.30568,-4.09855 -0.74849,-1.3599 -1.71491,-2.56965 -3.00018,-3.44574 -1.33875,-0.76585 -2.75012,-1.21633 -4.2684,-1.43779 -1.50705,-0.21348 -3.03638,-0.0234 -4.53089,-0.29624 -1.87563,-0.18923 -2.90891,-1.56527 -3.64909,-3.16145 -0.42293,-1.05688 -0.56139,-2.16134 -0.57977,-3.28831 0,0 10.02963,-5.06269 10.02963,-5.06269 v 0 c -0.10156,0.96718 0.0149,1.90571 0.33464,2.83056 0.60904,1.39296 1.46998,2.12051 3.03645,2.1904 1.52396,0.093 3.06224,0.054 4.56794,0.35029 1.61825,0.35725 3.15875,0.94093 4.54512,1.86664 1.3437,1.06311 2.45695,2.36885 3.27348,3.88168 0.79109,1.52862 0.90989,3.06149 0.65707,4.75728 -0.86413,6.02645 -5.5911,6.01514 -11.72176,9.49254 -1.50965,0.48735 -3.09092,0.75628 -4.68182,0.64486 -1.74976,-0.10022 -3.49223,-0.31427 -5.15949,-0.88615 -2.36119,-0.80861 -4.69967,-1.70121 -6.97646,-2.724 0,0 9.38189,-6.17295 9.38189,-6.17295 z"
       inkscape:connector-curvature="0" />
    <path
       style="fill:#ff0000;stroke-width:0.26458332"
       id="path76"
       d="m 99.638508,228.99374 c 1.325652,-2.06442 2.417662,-4.26641 2.800442,-6.70152 0.13156,-1.52701 -0.55383,-2.32377 -1.95701,-2.70755 -1.405561,-0.56417 -2.893009,-0.62322 -4.242288,-1.32419 -1.298417,-0.62298 -2.483734,-1.45948 -3.363778,-2.6048 -0.831641,-1.33927 -1.058473,-2.89106 -1.039918,-4.43958 0.215881,-1.81285 1.208399,-3.27333 2.615329,-4.37853 7.639845,-4.93677 8.094655,-5.46653 14.187735,-6.57324 0.99933,-0.13786 0.53016,-0.0165 1.41285,-0.34259 0,0 -8.91744,6.85174 -8.91744,6.85174 v 0 c -0.95289,0.18023 -0.46877,0.0893 -1.452372,0.27274 -5.109382,1.1195 -9.121889,3.17477 5.244062,-4.26461 -1.48656,0.69182 -2.56059,1.79875 -3.04123,3.40018 -0.17404,1.25886 0.0118,2.59444 0.65039,3.70783 0.80544,0.98007 1.93179,1.62863 3.07441,2.15353 1.3724,0.51524 2.86349,0.64915 4.20658,1.26861 1.68329,0.79981 2.68313,2.0923 2.66617,4.02606 -0.27843,2.6174 -1.2535,4.85857 -2.57384,7.12639 0,0 -10.270092,4.52953 -10.270092,4.52953 z"
       inkscape:connector-curvature="0" />
    <path
       style="fill:#ff0000;stroke-width:0.26458332"
       id="path78"
       d="m 86.043856,231.98293 c -2.431272,-0.54595 -4.886812,-1.13226 -7.125512,-2.25128 -1.523942,-0.68403 -2.685478,-1.92838 -3.712482,-3.21274 -1.008132,-1.46271 -1.923095,-2.99618 -2.888298,-4.49349 -0.877485,-1.51174 -1.868752,-2.93303 -2.531041,-4.55723 -0.686991,-1.71613 -0.570791,-3.29155 0.250415,-4.91848 3.267226,-4.21998 8.543975,-6.47252 13.312354,-8.60395 1.454065,-0.61967 2.994546,-0.97648 4.475673,-1.51177 0,0 -8.851236,6.88091 -8.851236,6.88091 v 0 c -1.494835,0.46768 -2.990776,0.94437 -4.406434,1.62387 -3.778205,1.88495 -1.690505,0.86494 8.153061,-4.86119 1.401064,-0.81502 -3.814701,2.49779 -2.397725,1.95841 -1.032886,1.21627 -1.29885,2.43915 -0.728639,3.96039 0.600583,1.57279 1.587923,2.91274 2.414434,4.37039 0.943065,1.46223 1.824276,2.97017 2.831563,4.38367 0.956024,1.15396 2.033759,2.20263 3.431146,2.80169 2.225341,1.00223 4.601956,1.59449 6.997834,2.0318 0,0 -9.225113,6.399 -9.225113,6.399 z"
       inkscape:connector-curvature="0" />
    <path
       style="fill:#ff0000;stroke-width:0.26458332"
       id="path80"
       d="m 129.25828,201.9508 c 1.11895,-0.37465 2.24593,-0.71425 3.35852,-1.10769 0,0 -8.8352,6.8672 -8.8352,6.8672 v 0 c -1.1473,0.36481 -2.29203,0.74124 -3.45985,1.03669 0,0 8.93653,-6.7962 8.93653,-6.7962 z"
       inkscape:connector-curvature="0" />
    <path
       style="fill:#ffffff;stroke-width:0.26458332"
       id="path82"
       d="m 123.03696,205.44024 c 2.23419,-1.02243 4.471,-2.02882 6.69772,-3.06516 1.00188,-0.55555 2.14523,-0.56722 3.2248,-0.81454 0.42101,-0.0965 0.81751,-0.27959 1.23058,-0.40583 3.33359,-2.27981 2.38354,-1.61202 -8.84986,5.02896 -0.18501,0.10937 0.32978,-0.18585 0.33202,0.34925 8e-4,0.17356 -0.33548,0.11461 -0.50897,0.10975 -1.31581,-0.15047 -2.48026,-0.0985 -3.75764,0.21696 0.31669,-0.52776 -2.41694,1.05932 -1.68345,0.63715 11.54904,-6.64723 12.09855,-6.99005 8.7301,-4.93173 0,0 -10.5047,4.06734 -10.5047,4.06734 v 0 c 3.98193,-2.47783 7.76639,-5.74303 12.43508,-6.5576 1.3426,-0.18646 2.72217,-0.1081 4.05194,0.14792 0.17467,0.0658 0.36405,0.10115 0.52399,0.19733 0.22495,0.13527 1.33489,1.27027 0.85892,1.57364 -3.24939,2.07112 -6.62224,3.94264 -9.96717,5.85562 -0.17376,0.0994 -0.38327,0.11563 -0.5749,0.17345 -1.45276,0.39577 -2.9688,0.57951 -4.30874,1.32784 -2.22839,1.04549 -4.50627,1.98367 -6.6997,3.1048 0,0 8.76998,-7.01515 8.76998,-7.01515 z"
       inkscape:connector-curvature="0" />
    <ellipse
       style="fill:#ffffff;stroke-width:0.26458332"
       id="path84"
       cx="113.39286"
       cy="174.15773"
       rx="15.875"
       ry="7.9375" />
    <path
       style="fill:#ff0000;stroke-width:0.26458332"
       id="path86"
       d="m 126.10933,216.10793 c -2.48627,-0.59452 -4.9402,-1.28751 -7.46674,-1.70084 -1.84524,-0.11621 -3.52834,-0.38223 -4.96542,-1.61385 -0.59698,-0.74805 -1.03493,-2.06986 0.008,-2.67878 3.38247,-1.97427 6.80153,-3.88517 10.2023,-5.82776 1.4287,-0.76109 2.79134,-1.62677 4.30962,-2.20541 1.51776,-0.50288 3.11865,-0.57356 4.70271,-0.61775 1.27867,0.0737 2.49756,-0.0559 3.74729,-0.29418 0,0 -8.98317,6.74956 -8.98317,6.74956 v 0 c -1.27082,0.1706 -2.54461,0.14557 -3.82423,0.19185 -1.52349,0.10027 -3.04793,0.28117 -4.44879,0.93541 -1.45669,0.71124 -2.83808,1.56417 -4.30248,2.26074 3.03092,-1.76346 6.07127,-3.51081 9.09275,-5.29038 0.1477,-0.087 -0.30273,0.16897 -0.46887,0.21115 -0.0611,0.0155 -0.57022,-0.0205 -0.67611,0.077 -0.17157,0.15807 0.13015,0.43847 0.17506,0.50165 1.33715,0.97402 3.036,0.88623 4.60075,1.18585 2.52549,0.49938 4.99269,1.23801 7.52213,1.71672 0,0 -9.22512,6.399 -9.22512,6.399 z"
       inkscape:connector-curvature="0" />
  </g>
</svg>
