<?xml version="1.0" encoding="UTF-8" standalone="no"?>
<svg
   xmlns:dc="http://purl.org/dc/elements/1.1/"
   xmlns:cc="http://creativecommons.org/ns#"
   xmlns:rdf="http://www.w3.org/1999/02/22-rdf-syntax-ns#"
   xmlns:svg="http://www.w3.org/2000/svg"
   xmlns="http://www.w3.org/2000/svg"
   xmlns:sodipodi="http://sodipodi.sourceforge.net/DTD/sodipodi-0.dtd"
   xmlns:inkscape="http://www.inkscape.org/namespaces/inkscape"
   enable-background="new 0 0 580 580"
   height="580"
   viewBox="0 0 580 580"
   width="580"
   version="1.1"
   id="svg6"
   sodipodi:docname="tourist_windmill-violet.svg"
   inkscape:version="0.92.5 (2060ec1f9f, 2020-04-08)">
  <metadata
     id="metadata12">
    <rdf:RDF>
      <cc:Work
         rdf:about="">
        <dc:format>image/svg+xml</dc:format>
        <dc:type
           rdf:resource="http://purl.org/dc/dcmitype/StillImage" />
        <dc:title></dc:title>
      </cc:Work>
    </rdf:RDF>
  </metadata>
  <defs
     id="defs10" />
  <sodipodi:namedview
     pagecolor="#ffffff"
     bordercolor="#666666"
     borderopacity="1"
     objecttolerance="10"
     gridtolerance="10"
     guidetolerance="10"
     inkscape:pageopacity="0"
     inkscape:pageshadow="2"
     inkscape:window-width="1920"
     inkscape:window-height="1057"
     id="namedview8"
     showgrid="false"
     inkscape:zoom="0.40689655"
     inkscape:cx="290"
     inkscape:cy="290"
     inkscape:window-x="-8"
     inkscape:window-y="-8"
     inkscape:window-maximized="1"
     inkscape:current-layer="svg6" />
  <path
     d="m184.782 542.016l55.55-326.723 52.305-31.318 51.165 32.154c0 0 46.844 331.201 41.397 328.545-5.445-2.658-199.328 1.327-200.417-2.658z"
     fill="param(fill)"
     opacity=".5"
     stroke="param(outline)"
     stroke-width="param(outline-width)"
     id="path2" />
  <path
     d="m514.195 412.575l-178.931-153.202 178.932-153.202c2.657-2.275 4.22-5.574 4.297-9.072s-1.338-6.862-3.893-9.252l-60.713-56.815c-2.569-2.404-6.048-3.587-9.545-3.266-3.502.326-6.697 2.136-8.777 4.973l-143.288 195.357-143.288-195.357c-2.08-2.836-5.275-4.646-8.777-4.973-3.503-.33-6.977.862-9.545 3.266l-60.713 56.815c-2.554 2.39-3.97 5.755-3.893 9.252s1.64 6.796 4.297 9.072l178.93 153.202-178.929 153.202c-2.658 2.274-4.22 5.574-4.297 9.071s1.338 6.862 3.893 9.253l60.713 56.814c2.289 2.142 5.297 3.318 8.404 3.318.379 0 .76-.018 1.141-.053 3.502-.326 6.697-2.136 8.777-4.973l143.288-195.357 143.287 195.357c2.08 2.837 5.275 4.646 8.777 4.973.381.035.762.053 1.142.053 3.106 0 6.114-1.177 8.403-3.318l60.713-56.814c2.555-2.391 3.97-5.756 3.893-9.253s-1.64-6.796-4.298-9.071zm-229.714-153.202l7.795-7.542 7.795 7.542-7.795 7.542z"
     fill="param(fill)"
     fill-opacity="param(fill-opacity)"
     stroke="param(outline)"
     stroke-opacity="param(outline-opacity)"
     stroke-width="param(outline-width)"
     id="path4" />
  <path
     style="fill:#ff00ff;stroke-width:2.45762706"
     d="m 189.61799,540.96526 c -2.70764,-1.71601 -1.45102,-13.15918 6.94532,-63.24627 5.63808,-33.63315 11.22757,-64.22747 12.42109,-67.98737 2.39512,-7.5453 80.28633,-114.81637 83.36997,-114.81637 1.60717,0 69.02453,89.89642 74.28839,99.05846 2.15411,3.74936 16.78933,124.84246 16.76522,138.71697 l -0.0181,10.44491 -95.23305,-0.0376 c -52.37818,-0.0207 -96.72064,-0.98042 -98.53879,-2.13271 z"
     id="path14"
     inkscape:connector-curvature="0" />
  <path
     style="fill:#ff00ff;stroke-width:2.45762706"
     d="m 280.73686,210.59296 -9.85368,-13.05111 10.99299,-5.83177 10.99299,-5.83177 10.50082,5.73632 10.50083,5.73632 -9.8316,13.14656 c -5.40737,7.2306 -10.64543,13.14656 -11.64013,13.14656 -0.99469,0 -6.24269,-5.873 -11.66222,-13.05111 z"
     id="path16"
     inkscape:connector-curvature="0" />
  <path
     style="fill:#ff00ff;stroke-width:2.45762706"
     d=""
     id="path18"
     inkscape:connector-curvature="0" />
  <path
     style="fill:#ff00ff;stroke-width:2.45762706"
     d="m 233.51221,263.74786 c 0.0598,-11.00622 2.80905,-13.42255 9.51588,-8.36358 l 5.78758,4.36558 -7.67055,5.46191 -7.67054,5.46191 z"
     id="path20"
     inkscape:connector-curvature="0" />
  <path
     style="fill:#800080;stroke-width:2.45762706"
     d="m 342.03985,263.9735 c -4.42593,-3.10004 -4.9848,-4.62414 -2.70355,-7.37289 4.94928,-5.96351 9.64675,-4.06059 9.64675,3.90786 0,8.61289 0.23731,8.49445 -6.9432,3.46503 z"
     id="path22"
     inkscape:connector-curvature="0" />
  <path
     style="fill:#800080;stroke-width:2.45762706"
     d="M 101.99153,459.2757 C 66.966829,426.50012 65.650469,424.95229 67.873865,419.15821 68.713039,416.97134 110.29294,380.13787 160.27363,337.306 l 90.87401,-77.87609 -6.99331,-6.03676 C 240.30801,250.07294 199.8435,215.42044 154.23321,176.38759 108.62292,137.35474 70.145025,103.25058 68.726775,100.60056 67.308526,97.95053 67.024342,94.349541 68.095256,92.598357 69.166171,90.847172 84.419492,75.956677 101.99153,59.508369 123.0369,39.808835 135.83022,29.583442 139.47724,29.54694 c 4.27446,-0.04278 10.71715,7.005553 28.26271,30.919544 89.49638,121.980466 122.87448,166.937276 124.30274,167.422766 0.90406,0.30731 34.28202,-43.92998 74.17322,-98.30508 63.78852,-86.949193 73.31229,-98.863831 79.02515,-98.863831 9.0288,0 70.86063,57.908657 70.86063,66.3646 0,4.493951 -18.24704,21.399961 -84.17372,77.987461 -46.29555,39.73733 -87.35965,75.00743 -91.25354,78.37801 l -7.07984,6.12832 91.25357,78.13595 c 71.34644,61.09049 91.25353,79.37952 91.25353,83.83635 0,4.12262 -8.87365,14.08495 -32.06077,35.99416 -31.51895,29.78182 -38.79937,34.50523 -45.11088,29.26714 -1.74477,-1.44803 -35.13837,-46.28252 -74.20795,-99.63222 -39.06961,-53.34971 -71.75604,-96.76364 -72.63653,-96.47539 -0.88048,0.28826 -34.08627,44.76138 -73.79065,98.82918 -58.11976,79.1451 -73.37522,98.43512 -78.272,98.97221 -4.81034,0.52762 -12.76332,-5.58494 -38.03138,-29.23041 z M 298.38446,262.25153 c 3.83951,-6.08689 -4.04026,-13.74113 -9.48993,-9.2183 -4.57712,3.79867 -4.86225,7.89735 -0.82991,11.92969 3.6154,3.6154 6.86806,2.76081 10.31984,-2.71139 z"
     id="path24"
     inkscape:connector-curvature="0" />
</svg>
