<?xml version="1.0" encoding="UTF-8" standalone="no"?>
<svg
   xmlns:dc="http://purl.org/dc/elements/1.1/"
   xmlns:cc="http://creativecommons.org/ns#"
   xmlns:rdf="http://www.w3.org/1999/02/22-rdf-syntax-ns#"
   xmlns:svg="http://www.w3.org/2000/svg"
   xmlns="http://www.w3.org/2000/svg"
   xmlns:sodipodi="http://sodipodi.sourceforge.net/DTD/sodipodi-0.dtd"
   xmlns:inkscape="http://www.inkscape.org/namespaces/inkscape"
   enable-background="new 0 0 580 580"
   height="580"
   viewBox="0 0 580 580"
   width="580"
   version="1.1"
   id="svg12"
   sodipodi:docname="tourist_art_gallery3.svg"
   inkscape:version="0.92.5 (2060ec1f9f, 2020-04-08)">
  <metadata
     id="metadata18">
    <rdf:RDF>
      <cc:Work
         rdf:about="">
        <dc:format>image/svg+xml</dc:format>
        <dc:type
           rdf:resource="http://purl.org/dc/dcmitype/StillImage" />
        <dc:title></dc:title>
      </cc:Work>
    </rdf:RDF>
  </metadata>
  <defs
     id="defs16" />
  <sodipodi:namedview
     pagecolor="#ffffff"
     bordercolor="#666666"
     borderopacity="1"
     objecttolerance="10"
     gridtolerance="10"
     guidetolerance="10"
     inkscape:pageopacity="0"
     inkscape:pageshadow="2"
     inkscape:window-width="1920"
     inkscape:window-height="1057"
     id="namedview14"
     showgrid="false"
     inkscape:zoom="0.40689655"
     inkscape:cx="290"
     inkscape:cy="290"
     inkscape:window-x="-8"
     inkscape:window-y="-8"
     inkscape:window-maximized="1"
     inkscape:current-layer="svg12" />
  <path
     d="m98.201 309.947l-6.138 61.375 39.894 49.102 116.614 56.772h128.889l76.72-53.704 32.223-55.238 10.74-69.047-55.237-78.255-32.223-42.963-76.72-16.878-38.359 141.164-82.857 12.275z"
     fill="param(fill)"
     opacity=".1"
     id="path2" />
  <path
     d="m165.714 429.63l95.132-127.354 96.667 12.275 88.994-61.376 36.825 18.413 16.879 69.047-32.223 70.582-136.561-79.788-32.223 38.359 6.138 102.805-65.979 3.068z"
     fill="param(fill)"
     opacity=".1"
     id="path4" />
  <path
     d="m490.476 246.322c-14.328-24.312-40.188-53.044-59.586-66.163-33.154-22.422-92.774-44.911-131.599-49.667-11.283-.619-22.259-1.738-33.292-2.053l-8.546-50.534-27.102 3.581 8.892 48.432c-7.151 1.16-14.446 3.083-21.968 6.07l-27.025-54.863-22.813 10.406 29.553 58.103c-2.773 3.525-5.856 7.636-8.807 10.905-20.163 22.339-23.87 54.008-9.483 80.769 14.955 27.817 12.442 47.001-6.939 52.974-8.208 2.529-11.822 1.852-29.938-5.268-11.332-4.453-24.683-8.062-29.648-8.03-14.028.091-27.554 8.534-34.916 21.728-5.526 9.902-6.479 14.296-6.54 31.465-.079 21.95 2.598 29.668 20.456 59.913 18.141 30.725 44.979 58.303 75.937 78.007 21.284 13.548 60.433 27.872 83.748 30.92 13.948 1.823 32.352 4.47 57.627 4.069l10.065 54.824c1.146 8.786 20.754 6.352 20.417-1.983l-9.108-53.858c11.886-.928 25.021-2.532 39.59-5.087 1.854-.432 3.707-.905 5.558-1.398l14.367 28.262c3.647 8.1 20.173.721 17.375-7.156l-13.286-26.983c35.63-13.206 68.535-35.971 87.856-58.123 23.61-27.069 27.755-39.133 33.645-68.197 7.174-35.41-2.673-84.049-24.49-121.065zm-148.312-35.752c5.437-6.232 12.573-15.371 15.878-20.31 4.629-6.918 6.666-8.574 12.935-8.611.896-.005 1.854.023 2.942.073 12.724.581 24.193 4.963 29.03 11.082 5.546 7.013 13.608 42.447 11.954 52.538-1.317 8.039-19.142 30.266-24.271 30.266-1.203 0-3.565.506-5.269 1.126-1.704.621-6.786-.497-11.264-2.47-4.477-1.974-10.966-3.667-14.424-3.779-10.583-.341-17.319-5.554-22.49-17.404-7.985-18.302-6.688-29.138 4.979-42.511zm-96.961-48.186l8.868 48.304-21.911-44.481c4.039-1.931 8.429-3.238 13.043-3.823zm1.635 85.25c-21.896-1.93-39.106-20.339-39.106-42.732 0-8.08 2.243-15.636 6.136-22.088zm-75.767 146.6c-12.109 10.084-15.833 11.809-25.36 11.809-11.426 0-20.456-6.291-20.456-14.243 0-1.978-2.717-9.433-6.031-16.567-5.266-11.335-5.696-14.157-3.524-22.455 3.036-11.598 13.693-23.797 20.892-24.161.232-.012.429-.013.654 0 2.994.177 12.772.64 21.728 1.018 8.955.377 17.597 1.673 19.22 2.834 3.914 2.799 14.497 26.842 14.497 32.954-.002 7.623-6.324 16.073-21.62 28.811zm112.343 23.798c-2.559 5.743-4.683 12.281-4.723 14.533-.041 2.253-2.746 7.579-5.995 11.809-5.174 6.735-7.906 7.821-21.981 8.974-13.334 1.093-16.282.618-17.477-2.942-.792-2.36-6.2-7.03-12.026-10.355-7.189-4.102-11.645-8.828-13.77-14.642-6.737-18.429-.627-43.688 11.009-45.563 3.102-.499 7.24-2.549 9.192-4.541 1.952-1.993 7.984-4.428 13.371-5.414 2.015-.369 3.739-.563 5.414-.581 5.023-.054 9.293 1.658 17.222 6.249 12.491 7.233 24.416 21.146 24.416 28.449-.002 1.984-2.094 8.281-4.652 14.024zm-10.7-249.886c12.461 7.5 20.8 21.155 20.8 36.756 0 10.44-3.737 20.013-9.94 27.458zm106.256 272.231c-6.549 1.607-15.658 4.696-20.274 6.903-18.963 9.068-33.69.545-36.66-21.255-5.136-37.713-5.145-37.604 5.269-49.521 5.609-6.42 9.182-9.577 14.497-9.847.293-.015.567-.039.872-.036 4.565.038 10.505 2.049 19.838 5.704 5.757 2.255 13.565 5.054 17.403 6.249 5.397 1.682 8.419 5.501 13.262 16.822 11.538 26.978 7.532 39.645-14.207 44.981zm100.388-114.849c-2.059 7.295-4.268 17.865-4.905 23.544-2.62 23.33-16.428 33.681-34.407 25.724-31.105-13.766-31.032-13.731-34.844-30.011-3.864-16.508-2.489-20.062 14.424-36.951 4.585-4.578 10.656-10.964 13.48-14.17 3.226-3.664 6.715-5.046 13.807-4.978 1.636.016 3.462.129 5.522.291 26.183 2.051 33.755 12.336 26.923 36.551z"
     fill="param(fill)"
     fill-opacity="param(fill-opacity)"
     stroke="param(outline)"
     stroke-opacity="param(outline-opacity)"
     stroke-width="param(outline-width)"
     id="path6" />
  <path
     d="m166.524 88.017l22-8.611c-2.337-9.447 1.938-17.762-8.521-27.314-14.632-13.362-21.124-17.041-29.959-24.501-2.063 17.87-5.727 40.68 16.48 60.426z"
     fill="param(fill)"
     fill-opacity="param(fill-opacity)"
     stroke="param(outline)"
     stroke-opacity="param(outline-opacity)"
     stroke-width="param(outline-width)"
     id="path8" />
  <path
     d="m256.219 75.77c.655-9.711 7.813-16.482.061-28.57-10.844-16.91-16.39-22.256-23.136-31.884-7.979 16.549-19.232 37.387-2.599 62.539z"
     fill="param(fill)"
     fill-opacity="param(fill-opacity)"
     stroke="param(outline)"
     stroke-opacity="param(outline-opacity)"
     stroke-width="param(outline-width)"
     id="path10" />
  <path
     style="fill:#008000;stroke-width:2.45762706"
     d="m 321.06018,563.3465 c -0.64847,-1.04926 -3.50922,-13.98244 -6.35722,-28.74045 -2.84799,-14.75797 -5.424,-26.97469 -5.72446,-27.14825 -0.30047,-0.17351 -15.00319,-1.57337 -32.67272,-3.11069 C 231.0698,500.41137 193.5002,488.04365 161.33318,466.49874 127.11206,443.578 87.628896,394.62849 75.837663,360.50509 c -10.649512,-30.8193 -1.95144,-62.83493 20.180492,-74.2798 10.386205,-5.37092 21.247275,-4.41993 45.501695,3.98407 19.29392,6.68522 22.97315,7.25556 31.09935,4.82089 18.08349,-5.41794 21.05778,-22.67772 8.6308,-50.08442 -7.00325,-15.44511 -7.98729,-20.18896 -7.98729,-38.50515 0,-18.16535 0.84823,-22.33259 6.50376,-31.95215 3.57707,-6.08427 8.83025,-13.16775 11.67373,-15.74107 2.84348,-2.57331 5.16997,-6.35121 5.16997,-8.39532 0,-2.04411 -6.08263,-15.60801 -13.51695,-30.14201 -7.43432,-14.53399 -13.51695,-26.899292 -13.51695,-27.478436 0,-1.751011 19.62418,-10.028419 20.85573,-8.79687 0.62953,0.62953 6.61023,12.819883 13.29045,27.089676 l 12.14585,25.94507 11.14169,-2.82898 c 6.12793,-1.55595 11.63846,-3.34338 12.24562,-3.97208 0.60716,-0.6287 -0.83409,-11.40909 -3.20278,-23.95642 -2.36869,-12.547339 -3.64132,-23.215013 -2.82807,-23.705946 0.81325,-0.490933 6.41716,-1.284253 12.45313,-1.762934 l 10.9745,-0.870329 4.23292,24.576269 c 2.3281,13.51695 4.30165,24.85276 4.38566,25.19068 0.084,0.33792 6.11321,0.61441 13.39822,0.61441 32.24201,0 85.3855,15.63843 128.0681,37.68635 40.40329,20.87053 76.42716,60.2368 94.11249,102.84448 19.66807,47.3845 19.72689,97.70063 0.15754,134.84715 -15.60834,29.62787 -57.82436,66.0893 -93.76993,80.98793 -7.7094,3.19536 -14.0171,6.68767 -14.0171,7.76069 0,1.07303 3.03957,8.14851 6.75459,15.72329 6.64211,13.54297 6.67445,13.83096 1.94261,17.29098 -6.94685,5.07964 -9.029,3.59351 -17.75582,-12.67325 -4.30637,-8.0271 -9.28307,-14.55316 -11.05932,-14.50231 -15.07968,0.43156 -43.78037,4.67962 -43.78037,6.48005 0,1.23823 1.81295,13.1676 4.02877,26.50969 2.21579,13.34211 3.35645,26.01034 2.53475,28.15165 -1.52096,3.96359 -12.67927,5.45799 -14.82537,1.98556 z M 271.60996,446.73505 c 3.0382,-3.53213 8.41799,-15.02943 11.95508,-25.54957 l 6.43106,-19.12751 -6.26393,-9.46546 c -7.91941,-11.96704 -26.50469,-23.94844 -37.1483,-23.94844 -4.42587,0 -14.61429,3.33723 -22.64094,7.41608 -16.30805,8.28717 -19.9666,14.54331 -19.95069,34.1159 0.0111,13.71914 6.12567,24.59664 17.92598,31.88965 4.73606,2.92704 9.2881,7.08635 10.11564,9.24287 1.2269,3.19727 4.50838,3.72972 17.77836,2.88476 13.8019,-0.87885 17.11278,-2.01169 21.79774,-7.45828 z m 98.90303,-2.245 c 26.56194,-8.89236 31.47572,-13.7415 29.42417,-29.03703 -0.70915,-5.28702 -3.99239,-15.51699 -7.29613,-22.73328 -5.93151,-12.95616 -6.25031,-13.20492 -25.44679,-19.85563 -23.26505,-8.06028 -27.83199,-8.25438 -36.36106,-1.54541 -11.09093,8.72411 -14.43015,18.03419 -12.58403,35.0856 2.42764,22.42241 5.82612,33.40287 12.36078,39.93753 7.62019,7.62019 12.25184,7.40524 39.90306,-1.85178 z M 158.27483,404.22984 c 10.77572,-5.11343 32.93499,-26.65323 34.71473,-33.74427 1.73957,-6.931 -6.96076,-31.54256 -13.01988,-36.83074 -2.67255,-2.33251 -12.11998,-4.31918 -25.46014,-5.35394 l -21.21079,-1.64528 -7.60634,7.60635 c -4.18349,4.18347 -8.91465,11.9731 -10.5137,17.31025 -2.61854,8.73989 -2.21226,11.4737 4.08963,27.51923 8.03334,20.45404 10.14314,23.73871 17.04464,26.53618 7.5881,3.07575 13.30079,2.71216 21.96185,-1.39778 z m 303.8952,-28.28573 c 6.78437,-3.6309 10.76947,-13.01383 15.62699,-36.79383 7.88097,-38.58142 3.14286,-48.3718 -24.60296,-50.83729 l -14.50762,-1.28914 -18.11817,18.7393 -18.11814,18.73928 1.12542,13.57104 c 1.47998,17.84685 7.17445,24.97986 26.65014,33.38266 17.12054,7.38667 24.57197,8.43355 31.94434,4.48798 z M 397.81072,271.46403 c 14.00663,-11.7858 18.33584,-21.7738 16.81695,-38.79866 -1.90616,-21.3659 -8.21975,-40.2678 -14.91563,-44.65511 -6.92778,-4.53926 -25.58786,-8.14212 -32.59177,-6.29278 -4.82826,1.27488 -25.89447,26.3759 -32.47337,38.69299 -5.70737,10.68542 -2.32174,30.67962 7.31535,43.20173 3.44323,4.474 30.25975,13.32952 41.85341,13.82109 3.77566,0.16009 9.72793,-2.37871 13.99506,-5.96926 z m -165.8264,-55.80725 c -8.94916,-17.90996 -16.75873,-33.0845 -17.35461,-33.7212 -2.0118,-2.14964 -5.57837,6.00935 -7.13992,16.33353 -2.76736,18.29637 8.43417,39.43808 24.63413,46.49434 17.1616,7.47512 17.15212,5.49928 -0.13959,-29.10667 z m 59.34545,4.37854 c 6.26427,-16.40276 3.30325,-31.1469 -8.83764,-44.00633 -11.55781,-12.24184 -11.64073,-11.75693 -4.78027,27.95406 2.68547,15.54449 4.89,28.60447 4.89896,29.02216 0.0788,3.67256 5.36785,-4.19516 8.71895,-12.96989 z m -40.37418,-33.25566 c -3.50561,-19.64674 -4.92904,-23.44707 -8.98026,-23.97594 -11.78921,-1.53902 -11.7801,2.777 0.0556,26.34326 6.27626,12.4968 11.78922,22.32965 12.251,21.85079 0.46178,-0.47886 -1.03507,-11.37701 -3.32634,-24.21811 z"
     id="path20"
     inkscape:connector-curvature="0" />
  <path
     style="fill:#008000;stroke-width:2.45762706"
     d="m 227.46051,69.064952 c -2.09904,-4.0591 -3.81644,-11.661824 -3.81644,-16.894938 0,-10.956503 6.9085,-33.091142 9.99053,-32.009351 3.61796,1.269906 22.09158,27.437116 23.59276,33.418287 0.79173,3.154495 0.43553,9.255171 -0.79155,13.55706 -2.05014,7.187397 -3.16061,7.881925 -13.69495,8.565371 -10.57758,0.686251 -11.75898,0.17314 -15.28035,-6.636429 z"
     id="path22"
     inkscape:connector-curvature="0" />
  <path
     style="fill:#ffff00;stroke-width:2.45762706"
     d="m 157.96534,75.793714 c -5.52208,-8.34443 -6.93645,-13.610093 -7.69604,-28.652272 l -0.93063,-18.429035 15.03394,11.811328 c 19.16822,15.059412 20.1273,16.298359 21.7014,28.034177 1.26056,9.398163 0.96196,9.9131 -7.89395,13.613335 -5.06223,2.115137 -10.15924,3.845702 -11.32668,3.845702 -1.16744,0 -5.16706,-4.600457 -8.88804,-10.223235 z"
     id="path24"
     inkscape:connector-curvature="0" />
  <path
     style="fill:#ffff00;stroke-width:2.45762706"
     d="m 229.38378,69.765209 c -5.24328,-8.008008 -5.67838,-24.554465 -1.01391,-38.557733 1.71175,-5.138854 4.39002,-8.934598 5.95171,-8.434985 1.56169,0.499613 7.20531,7.212121 12.54137,14.916685 7.17217,10.35565 9.6368,16.306425 9.45211,22.82186 -0.30308,10.692327 -1.85243,12.365853 -13.41433,14.489455 -8.02724,1.474379 -9.49632,0.905385 -13.51695,-5.235282 z"
     id="path26"
     inkscape:connector-curvature="0" />
  <path
     style="fill:#008000;stroke-width:2.45762706"
     d="m 320.8297,559.88413 c -1.82771,-8.04092 -11.16868,-52.05623 -11.16868,-52.62768 0,-0.26053 -9.12394,-1.2427 -20.27543,-2.18264 -49.63362,-4.18348 -92.96146,-16.91865 -122.48747,-36.00223 -32.38161,-20.92925 -68.402722,-62.18824 -85.448801,-97.87404 -7.42484,-15.54383 -8.773263,-20.9802 -8.854035,-35.69634 -0.129482,-23.59067 7.64721,-39.41568 23.318623,-47.45173 12.546523,-6.43366 16.906433,-6.10955 48.317353,3.59193 17.47266,5.39656 21.28505,5.8304 28.96416,3.29606 17.99779,-5.9398 20.32513,-22.35018 7.57705,-53.42676 -4.95232,-12.07249 -6.28094,-19.50643 -6.28094,-35.14323 0,-21.23882 2.43169,-28.41627 15.08249,-44.51774 3.86988,-4.92545 7.03615,-10.20937 7.03615,-11.74204 0,-1.53268 -5.71064,-14.96141 -12.69031,-29.84163 -7.96679,-16.9847 -11.82595,-27.91929 -10.36811,-29.37713 1.2772,-1.277206 5.60843,-2.979441 9.62495,-3.782745 7.74808,-1.549616 6.84511,-2.954398 32.15022,50.017185 0.58055,1.21526 23.0797,-4.90756 24.09462,-6.557 0.5215,-0.84752 -0.63363,-11.41029 -2.56693,-23.47281 -3.97574,-24.806003 -3.22211,-26.493229 11.3474,-25.404473 l 8.58336,0.641421 3.73326,23.347462 3.73326,23.34745 18.40372,1.78639 c 40.0633,3.88882 81.93912,16.81165 124.08168,38.29147 18.36968,9.36292 26.28417,15.46118 46.69491,35.9793 31.64539,31.81187 45.87999,56.01414 56.53774,96.12788 5.82003,21.9055 5.28586,62.11705 -1.09652,82.54784 -12.09954,38.73194 -51.04138,78.07474 -100.42656,101.46053 -8.37458,3.9657 -15.22652,8.08142 -15.22652,9.14604 0,1.06462 2.6765,7.9877 5.94778,15.38467 5.00336,11.31344 5.40673,13.89805 2.54027,16.27699 -5.1544,4.27777 -8.13113,2.21351 -17.96948,-12.46113 l -9.00944,-13.43828 -13.53872,0.80959 c -7.44629,0.44527 -17.38648,1.61879 -22.0893,2.60781 l -8.5506,1.79822 1.13075,14.59558 c 0.6219,8.02757 1.17487,21.23117 1.22882,29.34134 0.089,13.38623 -0.40377,14.81711 -5.34473,15.51972 -4.00672,0.56975 -5.784,-0.72714 -6.73599,-4.91525 z M 264.0338,452.26466 c 7.86311,-2.98956 13.75865,-12.53906 21.15667,-34.26933 l 5.76047,-16.92022 -6.94176,-9.10111 c -8.95629,-11.74232 -27.30557,-23.33657 -36.8844,-23.30592 -10.39365,0.0332 -31.38296,10.26627 -37.80589,18.43171 -3.98834,5.07033 -5.33584,10.15406 -5.33584,20.1305 0,16.77706 2.28482,21.29927 18.02644,35.67877 11.29369,10.31646 13.96393,11.60413 24.20764,11.67373 6.33256,0.043 14.35005,-1.00013 17.81667,-2.31813 z m 103.92429,-6.46069 c 11.11214,-3.53168 23.14535,-9.14733 26.74049,-12.47919 5.8536,-5.42491 6.38914,-7.30311 5.1253,-17.97434 -1.1149,-9.41353 -11.98218,-36.81376 -14.63224,-36.89299 -0.31514,-0.01 -8.69695,-2.77427 -18.62621,-6.14407 -23.6872,-8.03902 -28.14465,-7.77716 -39.12272,2.29827 -9.05987,8.31497 -9.17683,8.66071 -8.93804,26.41949 0.29855,22.20398 4.41805,37.62345 12.10526,45.31069 7.43857,7.43857 12.47963,7.36597 37.34816,-0.53786 z M 157.98148,404.62228 c 9.95832,-4.21058 33.22216,-27.02105 35.07103,-34.38754 1.95397,-7.78522 -8.00448,-32.95083 -14.80156,-37.40444 -3.28982,-2.15556 -14.41119,-4.3258 -26.56182,-5.18329 l -20.90242,-1.47509 -7.70908,10.64207 c -11.02848,15.22438 -11.66934,20.42386 -4.96833,40.30951 9.37291,27.81468 20.68069,35.61335 39.87218,27.49878 z m 307.64837,-31.97786 c 6.74582,-6.74582 10.16651,-17.33244 14.17975,-43.88457 1.90665,-12.61484 2.07745,-21.28187 0.50853,-25.80509 -3.05461,-8.80646 -16.28586,-15.40367 -30.90324,-15.40857 -10.89869,-0.004 -12.14299,0.76505 -28.83585,17.81398 -16.09736,16.4407 -17.44888,18.63116 -17.48693,28.34165 -0.0816,20.80843 9.06751,31.99661 33.48699,40.95036 14.1634,5.19321 22.42044,4.62255 29.05075,-2.00776 z M 399.40444,269.97416 c 13.63516,-11.97183 16.79255,-20.03201 15.21117,-38.83092 -0.74496,-8.85548 -3.3874,-21.63053 -5.87209,-28.389 -4.92806,-13.40448 -13.03225,-19.08626 -30.95971,-21.70554 -7.8822,-1.15163 -10.57404,-0.23242 -17.73721,6.05692 -4.64462,4.07803 -12.90475,14.09348 -18.35584,22.25657 -11.79472,17.66274 -12.9094,29.43702 -4.38144,46.28077 4.98638,9.84868 7.09915,11.46293 21.50424,16.43015 22.25214,7.67307 29.9123,7.27696 40.59088,-2.09895 z M 245.76271,245.43577 c 0,-4.09212 -30.09293,-63.57136 -32.1633,-63.57136 -2.59484,0 -7.15873,14.38538 -7.15873,22.56431 0,8.37837 5.84842,23.24968 11.76746,29.9222 9.43194,10.6326 27.55457,17.9231 27.55457,11.08485 z m 44.30347,-22.40611 c 5.77186,-12.71568 6.10968,-24.24894 1.02417,-34.96585 -4.47582,-9.4321 -15.06368,-20.07918 -17.52242,-17.62044 -1.59373,1.59373 5.44509,52.2426 8.29097,59.65884 1.9828,5.1671 3.08112,4.22064 8.20728,-7.07255 z m -38.00336,-32.73193 c -4.52723,-25.52325 -5.69014,-28.09434 -12.70712,-28.09434 -9.49735,0 -7.76486,7.92295 8.51621,38.94578 3.08362,5.87569 6.066,10.22365 6.62752,9.66214 0.56151,-0.56152 -0.53496,-9.79263 -2.43661,-20.51358 z"
     id="path28"
     inkscape:connector-curvature="0" />
</svg>
