<?xml version="1.0" encoding="UTF-8" standalone="no"?>
<svg
   xmlns:dc="http://purl.org/dc/elements/1.1/"
   xmlns:cc="http://creativecommons.org/ns#"
   xmlns:rdf="http://www.w3.org/1999/02/22-rdf-syntax-ns#"
   xmlns:svg="http://www.w3.org/2000/svg"
   xmlns="http://www.w3.org/2000/svg"
   xmlns:sodipodi="http://sodipodi.sourceforge.net/DTD/sodipodi-0.dtd"
   xmlns:inkscape="http://www.inkscape.org/namespaces/inkscape"
   version="1.1"
   id="watermill"
   width="15"
   height="15"
   viewBox="0 0 15 15"
   sodipodi:docname="watermill-violet.svg"
   inkscape:version="0.92.5 (2060ec1f9f, 2020-04-08)">
  <metadata
     id="metadata9">
    <rdf:RDF>
      <cc:Work
         rdf:about="">
        <dc:format>image/svg+xml</dc:format>
        <dc:type
           rdf:resource="http://purl.org/dc/dcmitype/StillImage" />
        <dc:title></dc:title>
      </cc:Work>
    </rdf:RDF>
  </metadata>
  <defs
     id="defs7" />
  <sodipodi:namedview
     pagecolor="#ffffff"
     bordercolor="#666666"
     borderopacity="1"
     objecttolerance="10"
     gridtolerance="10"
     guidetolerance="10"
     inkscape:pageopacity="0"
     inkscape:pageshadow="2"
     inkscape:window-width="1920"
     inkscape:window-height="1057"
     id="namedview5"
     showgrid="false"
     inkscape:zoom="15.733333"
     inkscape:cx="7.5"
     inkscape:cy="7.5"
     inkscape:window-x="-8"
     inkscape:window-y="-8"
     inkscape:window-maximized="1"
     inkscape:current-layer="watermill" />
  <path
     d="M2,10.2L4,9l2.5,1.5l1.4659-0.8788C7.6592,9.4698,7.3716,9.285,7.1231,9.0536l1.4131-1.4131
	C8.7672,7.836,9.0557,7.9606,9.375,7.9874V9.224l0.25,0.1501V7.9874c0.3193-0.0268,0.6078-0.1514,0.8388-0.3469l1.4131,1.4131
	c-0.4059,0.3781-0.9044,0.6492-1.4528,0.8003L11.5,10.5l0.6984-0.4191C13.2863,9.2595,14,7.9682,14,6.5C14,4.0147,11.9853,2,9.5,2
	C8.1917,2,7.0241,2.5674,6.2018,3.4587L4.5,2L1,5h1V10.2z M12.0536,8.8769l-1.4131-1.4131c0.1954-0.231,0.3201-0.5196,0.3469-0.8388
	h1.9999C12.956,7.4946,12.6089,8.2806,12.0536,8.8769z M12.9874,6.375h-1.9999c-0.0268-0.3193-0.1514-0.6078-0.3469-0.8388
	l1.4131-1.4131C12.6089,4.7193,12.956,5.5054,12.9874,6.375z M9.625,3.0126c0.8696,0.0314,1.6557,0.3784,2.2519,0.9337
	l-1.4131,1.4131c-0.231-0.1954-0.5196-0.32-0.8388-0.3468C9.625,5.0126,9.625,3.0126,9.625,3.0126z M9.375,3.0126v1.9999
	C9.0558,5.0394,8.7672,5.164,8.5362,5.3594L7.1231,3.9463C7.7193,3.3911,8.5054,3.044,9.375,3.0126z M6.9464,4.1231l1.4131,1.4131
	C8.164,5.7672,8.0394,6.0557,8.0126,6.375h-2C6.044,5.5054,6.3911,4.7193,6.9464,4.1231z M8.0126,6.625
	c0.0268,0.3192,0.1515,0.6078,0.3469,0.8388L6.9464,8.8769C6.3911,8.2807,6.044,7.4946,6.0126,6.625H8.0126z M9.002,10L6.5,11.5
	L4,10l-2.5,1.5V13L4,11.5L6.5,13l2.502-1.5L11.5,13l2.5-1.5V10l-2.5,1.5L9.002,10z"
     id="path2" />
  <path
     style="fill:#800080;stroke-width:0.06355932"
     d="M 5.1906719,9.6868958 3.9936319,8.960229 3.0418491,9.5330809 c -0.5234805,0.315068 -0.9644205,0.5728511 -0.9798668,0.5728511 -0.015446,0 -0.028084,-1.1571157 -0.028084,-2.5713678 V 4.9631961 L 1.5855037,4.9445218 1.1371092,4.9258475 2.8186524,3.4844603 4.5001955,2.0430731 5.343752,2.7641915 6.1873086,3.4853101 6.5417475,3.1773904 c 1.4170103,-1.231031 3.2741108,-1.4802162 4.9373065,-0.6624865 2.651222,1.3035039 3.313357,4.7970618 1.317717,6.952538 -0.369865,0.3994888 -1.124318,0.9562871 -1.295754,0.9562871 -0.126522,0 -0.958193,-0.5259923 -0.90593,-0.5729582 0.0281,-0.025256 0.181905,-0.094539 0.341779,-0.1539636 0.292319,-0.1086534 0.889291,-0.5204847 0.928321,-0.6404174 0.01152,-0.035405 -0.291047,-0.375401 -0.672375,-0.755547 L 10.499488,7.6096688 10.163112,7.777292 C 9.9781049,7.869485 9.7751485,7.9449153 9.712097,7.9449153 c -0.1032584,0 -0.1146394,0.066781 -0.1146394,0.6726692 0,0.5098157 -0.019235,0.6662905 -0.079449,0.6463214 C 9.4630462,9.2456784 9.4329763,9.0383536 9.4204462,8.5912367 9.4045011,8.0222934 9.3888744,7.9449153 9.2899169,7.9449153 c -0.061829,0 -0.2639987,-0.075537 -0.4492665,-0.16786 L 8.5037994,7.6091952 7.7986697,8.3143248 7.09354,9.0194542 7.2172435,9.1561449 c 0.068037,0.07518 0.2466478,0.2087415 0.3969135,0.2968023 0.3146847,0.1844181 0.362796,0.1231602 -0.5043399,0.6421508 -0.3019946,0.180747 -0.5880115,0.326343 -0.6355932,0.323548 -0.047582,-0.0028 -0.62518,-0.332084 -1.283552,-0.7317502 z M 7.6674642,8.1906112 8.3771714,7.4829174 8.2246023,7.1959752 C 8.14069,7.0381571 8.0720339,6.8417888 8.0720339,6.7596013 V 6.6101695 H 7.0160883 5.9601427 l 0.042346,0.3019068 c 0.051794,0.3692694 0.201488,0.8520591 0.3695105,1.1917373 0.1282002,0.2591726 0.4991916,0.788965 0.5549727,0.7925262 0.016932,0.00108 0.3501534,-0.3164968 0.7404923,-0.7057286 z M 12.46953,8.3626354 c 0.253298,-0.3907911 0.448024,-0.9299323 0.523913,-1.4505591 l 0.04401,-0.3019068 h -1.052624 c -1.049009,0 -1.052625,4.894e-4 -1.053389,0.1430085 -4.44e-4,0.078655 -0.07329,0.2698955 -0.16194,0.4249797 L 10.608322,7.460129 11.32289,8.1767304 c 0.808772,0.8110726 0.747831,0.8011923 1.14664,0.185905 z M 8.1065434,6.1159057 C 8.1506479,5.9664123 8.2354703,5.7697172 8.2950375,5.6788054 L 8.4033426,5.5135114 7.7133242,4.8210081 C 7.3338135,4.4401314 6.982188,4.1363446 6.9319338,4.1459266 6.8816795,4.1555085 6.7207847,4.3421286 6.5743897,4.5606379 6.300058,4.9701057 6.072801,5.5875863 6.0007797,6.119195 l -0.04112,0.3035169 1.0333471,-0.0175 1.0333469,-0.0175 z m 4.8894256,0.00168 C 12.973154,5.951536 12.925599,5.7012712 12.890291,5.5614407 12.760449,5.0472311 12.223421,4.1313559 12.051754,4.1313559 c -0.04014,0 -0.379634,0.3075983 -0.754422,0.6835518 L 10.6159,5.4984594 10.774052,5.8108491 c 0.08698,0.1718143 0.158151,0.3790465 0.158151,0.460516 v 0.1481264 h 1.052623 1.052624 z M 9.1684322,5.0815175 9.4067797,5.0162868 V 4.0017875 2.9872881 H 9.2294555 c -0.4960017,0 -1.4944551,0.3928005 -1.9201335,0.7553977 L 7.0868644,3.9321775 7.8105731,4.6611555 8.5342818,5.3901335 8.7321833,5.2684408 C 8.8410292,5.2015098 9.0373411,5.1173943 9.1684322,5.0815175 Z M 11.864877,3.9103078 C 11.853197,3.8752694 11.663378,3.7258307 11.443057,3.5782217 11.006479,3.285727 10.454028,3.0794009 9.929529,3.0129583 l -0.3353008,-0.042475 0.017504,1.0386985 0.017505,1.0386986 0.2008322,0.041012 c 0.1104572,0.022557 0.2963686,0.098859 0.4131356,0.1695617 L 10.455508,5.3870038 11.17081,4.6805091 C 11.564226,4.291937 11.876556,3.9453466 11.864877,3.9103078 Z"
     id="path11"
     inkscape:connector-curvature="0" />
  <path
     style="fill:#800080;stroke-width:0.06355932"
     d="M 5.3352915,12.255962 C 4.6906058,11.867976 4.115003,11.537282 4.0561743,11.521088 3.9941718,11.50402 3.4557901,11.788162 2.7753091,12.197093 2.1296618,12.58509 1.5843092,12.902542 1.5634144,12.902542 c -0.020895,0 -0.037991,-0.310706 -0.037991,-0.690459 V 11.521624 L 2.7654017,10.77861 4.00538,10.035595 5.172656,10.737061 c 0.6420019,0.385807 1.2120601,0.718652 1.2667962,0.739656 0.061613,0.02364 0.5695833,-0.243479 1.3335933,-0.701286 l 1.2340728,-0.739476 1.2205967,0.734141 c 0.671328,0.403778 1.245763,0.734141 1.276522,0.734141 0.03076,0 0.601076,-0.327886 1.26737,-0.728636 l 1.211444,-0.728637 v 0.712878 0.712877 l -1.239832,0.74414 -1.239832,0.74414 -1.211019,-0.728381 c -0.6660605,-0.400609 -1.2450535,-0.72835 -1.2866511,-0.728313 -0.061,5.5e-5 -1.1842265,0.652403 -2.3039003,1.33806 l -0.1943694,0.119026 z"
     id="path13"
     inkscape:connector-curvature="0" />
</svg>
